<svg class="icon-user" xmlns="http://www.w3.org/2000/svg" viewBox="0 0 24 24">
<path d="M15.9,12.3C17.2,11.1,18,9.1,18,7c0-3.9-2.7-7-6-7S6,3.1,6,7c0,2.1,0.8,4.1,2.1,5.3C3.5,13.2,1,15.9,1,20c0,2.7,5.7,4,11,4
s11-1.3,11-4C23,15.9,20.5,13.2,15.9,12.3z M12,14c1.1,0,2.1,0.1,3,0.2c-0.2,1.2-1.4,2.4-3,2.8c-1.6-0.4-2.8-1.5-3-2.8
C9.9,14.1,10.9,14,12,14z M8,7c0-2.8,1.8-5,4-5s4,2.2,4,5s-1.8,5-4,5S8,9.8,8,7z M12,22c-5.9,0-8.8-1.5-9-2c0-3,1.7-4.9,5.1-5.6
c0.3,1.7,1.8,3.2,3.8,3.6l0.1,0l0.1,0c2-0.4,3.6-1.9,3.8-3.6C19.3,15.1,21,17,21,20C20.8,20.5,17.8,22,12,22z"/>
</svg>