<svg class="icon-link" xmlns="http://www.w3.org/2000/svg" viewBox="0 0 24 24">
<path d="M22.4,1.6c-1-1-2.4-1.6-3.9-1.6c-1.5,0-2.9,0.6-3.9,1.6L10.2,6L9.6,6.6C9.1,7.1,8.7,7.7,8.4,8.4c0,0,0,0,0,0
	C8.1,9.2,7.9,10.1,8,11v0c0.1,0.7,0.3,1.5,0.7,2.1c0.2,0.4,0.5,0.9,0.9,1.2s0.8,0.7,1.2,0.9l0.7-0.7c0.3-0.3,0.4-0.6,0.4-0.9
	c0,0,0,0,0,0c-0.1-0.1-0.3-0.1-0.4-0.2c-0.2-0.1-0.4-0.3-0.5-0.4c-0.3-0.3-0.5-0.6-0.7-1c-0.3-0.6-0.4-1.3-0.3-1.9c0,0,0,0,0,0
	c0.1-0.7,0.4-1.4,1-2c0,0,0,0,0,0l1.7-1.7L16,3c0.1-0.1,0.3-0.2,0.4-0.4c0,0,0.1-0.1,0.1-0.1C17.1,2.2,17.8,2,18.5,2
	c0.7,0,1.4,0.2,2,0.6c0.1,0.1,0.2,0.1,0.3,0.2C20.8,2.9,20.9,2.9,21,3c1.4,1.4,1.4,3.6,0,5l-3.3,3.3c0.2,0.7,0.3,1.5,0.3,2.2
	c0,0.1,0,0.2,0,0.3l4.4-4.4C24.5,7.3,24.5,3.8,22.4,1.6z"/>
<path d="M16,13c-0.1-0.7-0.3-1.5-0.7-2.1c-0.2-0.4-0.5-0.9-0.9-1.2s-0.8-0.7-1.2-0.9l-0.7,0.7C12.2,9.7,12,10,12,10.3
	c0.1,0.1,0.3,0.2,0.4,0.2c0.1,0.1,0.2,0.1,0.3,0.2c0.1,0.1,0.2,0.1,0.2,0.2c0.3,0.3,0.5,0.6,0.7,0.9c0.3,0.6,0.4,1.3,0.3,2
	c0,0,0,0,0,0c-0.1,0.7-0.4,1.4-1,2c0,0,0,0,0,0l-1.7,1.7L8,21c-0.1,0.1-0.3,0.2-0.4,0.4c0,0-0.1,0.1-0.1,0.1
	c-1.2,0.7-2.7,0.7-3.9,0C3.4,21.3,3.2,21.1,3,21c-1.4-1.4-1.4-3.6,0-5l3.3-3.3C6.1,12,6,11.2,6,10.5c0-0.1,0-0.2,0-0.3l-4.4,4.4
	c-2.2,2.2-2.2,5.7,0,7.8c1,1,2.4,1.6,3.9,1.6c1.5,0,2.9-0.6,3.9-1.6l4.4-4.4l0.6-0.6c0.5-0.5,0.9-1.1,1.2-1.8c0,0,0,0,0,0
	C15.9,14.8,16.1,13.9,16,13C16,13,16,13,16,13z"/>
</svg>